<?xml version="1.0"?>
<svg xmlns="http://www.w3.org/2000/svg" xmlns:xlink="http://www.w3.org/1999/xlink" xmlns:svgjs="http://svgjs.com/svgjs" version="1.1" width="512" height="512" x="0" y="0" viewBox="0 0 512.001 512.001" style="enable-background:new 0 0 512 512" xml:space="preserve" class=""><g>
<path xmlns="http://www.w3.org/2000/svg" style="" d="M433.965,499.325H308.057c-8.315,0-15.057-6.741-15.057-15.057V356.932h-74.002v127.337  c0,8.315-6.742,15.057-15.057,15.057H78.028c-8.315,0-15.057-6.741-15.057-15.057V274.547H26.282  c-10.926,0-20.537-6.584-24.484-16.772c-3.946-10.19-1.277-21.529,6.799-28.889l229.72-209.319  c10.079-9.187,25.284-9.188,35.367,0.001l52.236,47.597V58.79c0-8.315,6.742-15.057,15.057-15.057h104.116  c8.315,0,15.057,6.741,15.057,15.057v130.683l43.253,39.411c8.078,7.361,10.746,18.701,6.8,28.89  c-3.947,10.189-13.557,16.772-24.484,16.772h-36.697v209.721C449.022,492.584,442.28,499.325,433.965,499.325z" fill="#a7c1c5" data-original="#8cdc52" class=""/>
<path xmlns="http://www.w3.org/2000/svg" style="" d="M503.401,228.884l-43.253-39.411V58.79c0-8.315-6.741-15.057-15.057-15.057H340.976  c-8.315,0-15.057,6.741-15.057,15.057v8.374l-52.236-47.597c-5.042-4.595-11.365-6.892-17.687-6.891v344.256h37.004v127.337  c0,8.315,6.741,15.057,15.057,15.057h125.908c8.315,0,15.057-6.741,15.057-15.057V274.547h36.697  c10.926,0,20.537-6.584,24.484-16.772C514.147,247.585,511.479,236.245,503.401,228.884z" fill="#a7c1c5" data-original="#5dc378" class=""/>
<g xmlns="http://www.w3.org/2000/svg">
</g>
<g xmlns="http://www.w3.org/2000/svg">
</g>
<g xmlns="http://www.w3.org/2000/svg">
</g>
<g xmlns="http://www.w3.org/2000/svg">
</g>
<g xmlns="http://www.w3.org/2000/svg">
</g>
<g xmlns="http://www.w3.org/2000/svg">
</g>
<g xmlns="http://www.w3.org/2000/svg">
</g>
<g xmlns="http://www.w3.org/2000/svg">
</g>
<g xmlns="http://www.w3.org/2000/svg">
</g>
<g xmlns="http://www.w3.org/2000/svg">
</g>
<g xmlns="http://www.w3.org/2000/svg">
</g>
<g xmlns="http://www.w3.org/2000/svg">
</g>
<g xmlns="http://www.w3.org/2000/svg">
</g>
<g xmlns="http://www.w3.org/2000/svg">
</g>
<g xmlns="http://www.w3.org/2000/svg">
</g>
</g></svg>
