<?xml version="1.0"?>
<svg xmlns="http://www.w3.org/2000/svg" xmlns:xlink="http://www.w3.org/1999/xlink" xmlns:svgjs="http://svgjs.com/svgjs" version="1.1" width="512" height="512" x="0" y="0" viewBox="0 0 481.989 481.989" style="enable-background:new 0 0 512 512" xml:space="preserve" class=""><g><path xmlns="http://www.w3.org/2000/svg" d="m434.837.019c-12.72.32-24.43 5.71-32.95 15.17-153.519 170.29-144.802 158.814-147.438 167.84l-160.332 45.172c-94.473 26.739-125.803 145.045-56.959 215.088.496.633.91 1.049 1.549 1.549 69.881 68.74 188.3 37.691 215.089-56.96l33.238-117.607c1.352-4.782-1.431-9.756-6.214-11.108-4.777-1.349-9.756 1.429-11.108 6.214l-33.237 117.603c-18.954 66.969-95.308 101.066-158.035 68.688 75.129-.756 129.961-55.891 158.985-124.466 1.938-4.577-.203-9.858-4.78-11.796-4.576-1.936-9.858.202-11.796 4.78-29.384 69.423-84.332 120.465-159.01 112.701l192.522-192.521c3.515-3.515 3.515-9.214 0-12.729-3.516-3.514-9.214-3.514-12.728 0l-192.522 192.52c-8.26-79.453 50.673-136.383 124.722-163.77 4.662-1.725 7.043-6.901 5.319-11.563s-6.899-7.045-11.563-5.319c-74.307 27.483-136.456 84.321-137.26 164.049-32.33-62.638 1.614-139.046 68.68-158.028l156.182-44.003c2.706 7.091 6.246 9.817 15.127 18.698 10.918 10.919 28.445 11.375 39.92 1.04l156.57-141.15c31.512-28.384 10.589-81.26-31.971-80.092zm4.525 55.344-10 10c-3.517 3.515-9.213 3.514-12.729 0-3.515-3.515-3.515-9.214 0-12.729l10-10c3.516-3.514 9.213-3.514 12.729 0 3.514 3.515 3.514 9.215 0 12.729z" fill="#a7c1c5" data-original="#000000" style="" class=""/></g></svg>
